<?xml version="1.0" encoding="utf-8"?>
<!DOCTYPE svg PUBLIC "-//W3C//DTD SVG 1.1//EN" "http://www.w3.org/Graphics/SVG/1.1/DTD/svg11.dtd">
<svg version="1.1" id="Layer_1" xmlns="http://www.w3.org/2000/svg" xmlns:xlink="http://www.w3.org/1999/xlink" x="0px" y="0px"
	 width="167.27px" height="249.36px" viewBox="0 0 167.27 249.36" enable-background="new 0 0 167.27 249.36" xml:space="preserve">


	<!-- 30 days dot -->
	<path fill="#1d204b" d="M68.238,225.973c0,3.651-2.961,6.61-6.612,6.61c-3.652,0-6.614-2.959-6.614-6.61
		c0-3.654,2.961-6.614,6.614-6.614C65.277,219.358,68.238,222.318,68.238,225.973z"/>

	<!-- color frame -->
	<rect y="168.23" fill="#1d204b" width="37.5" height="81.13"/>
	<line stroke="#1d204b" x1="0.156" y1="168.288" x2="167.27" y2="168.288"/>

	<!-- month indicators --><rect x="131.093" y="207.762" fill="#A7A9AC" width="13.469" height="10.83"/>
<rect x="145.378" y="30.88" fill="#A7A9AC" width="4.571" height="4.119"/>
	<circle fill="#1d204b" cx="147.542" cy="57.491" r="2.082"/>
	<circle fill="#1d204b" cx="147.665" cy="82.451" r="2.081"/>
	<circle fill="#1d204b" cx="147.421" cy="119.425" r="2.081"/>
	<circle fill="#1d204b" cx="147.665" cy="145.061" r="2.081"/>
	
	<!-- current year -->
	<text transform="matrix(0 -1 1 0 33.2402 224.2803)"><tspan x="0" y="0" font-family="'HelveticaNeue-Bold'" font-size="18.0274" fill="white">02143</tspan></text>

	<!-- (optional.is) logo-->
	<g>
		<path fill="#1d204b" d="M104.891,226.118c0-0.659,0.238-1.217,0.709-1.679c0.47-0.463,1.044-0.694,1.721-0.694
			c0.679,0,1.258,0.232,1.732,0.698c0.466,0.465,0.702,1.035,0.702,1.712c0,0.684-0.237,1.256-0.708,1.718
			c-0.475,0.459-1.057,0.687-1.745,0.687c-0.683,0-1.256-0.232-1.717-0.7C105.123,227.397,104.891,226.817,104.891,226.118z
			 M105.969,226.138c0,0.455,0.123,0.815,0.366,1.08c0.248,0.27,0.576,0.402,0.985,0.402c0.412,0,0.741-0.131,0.987-0.398
			c0.248-0.264,0.37-0.618,0.37-1.061c0-0.443-0.122-0.799-0.37-1.062c-0.251-0.27-0.578-0.402-0.987-0.402
			c-0.403,0-0.728,0.133-0.977,0.402C106.093,225.367,105.969,225.713,105.969,226.138z"/>
		<path fill="#1d204b" d="M111.321,230.911h-1.053v-7.039h1.053v0.495c0.415-0.413,0.887-0.622,1.415-0.622
			c0.626,0,1.141,0.231,1.547,0.694c0.411,0.457,0.617,1.036,0.617,1.734c0,0.684-0.203,1.253-0.611,1.708
			c-0.404,0.453-0.918,0.678-1.537,0.678c-0.531,0-1.009-0.213-1.431-0.64V230.911z M113.826,226.181
			c0-0.438-0.118-0.795-0.355-1.068c-0.242-0.278-0.543-0.416-0.91-0.416c-0.386,0-0.7,0.133-0.938,0.402
			c-0.242,0.269-0.363,0.62-0.363,1.057c0,0.429,0.121,0.779,0.363,1.059c0.233,0.271,0.546,0.406,0.935,0.406
			c0.364,0,0.665-0.137,0.903-0.41C113.704,226.934,113.826,226.591,113.826,226.181z"/>
		<path fill="#1d204b" d="M116.705,224.854v3.575h-1.053v-3.575h-0.449v-0.982h0.449v-1.67h1.053v1.67h0.459v0.982H116.705z"/>
		<path fill="#1d204b" d="M117.603,222.216c0-0.184,0.066-0.343,0.201-0.478c0.134-0.135,0.295-0.201,0.482-0.201
			c0.188,0,0.351,0.066,0.485,0.201c0.134,0.132,0.2,0.292,0.2,0.482c0,0.189-0.066,0.354-0.2,0.487
			c-0.129,0.134-0.292,0.2-0.482,0.2c-0.188,0-0.352-0.066-0.485-0.2C117.669,222.574,117.603,222.41,117.603,222.216z
			 M118.814,223.872v4.558h-1.054v-4.558H118.814z"/>
		<path fill="#1d204b" d="M119.335,226.118c0-0.659,0.234-1.217,0.706-1.679c0.47-0.463,1.044-0.694,1.721-0.694
			c0.682,0,1.257,0.232,1.732,0.698c0.469,0.465,0.701,1.035,0.701,1.712c0,0.684-0.234,1.256-0.706,1.718
			c-0.474,0.459-1.057,0.687-1.747,0.687c-0.683,0-1.255-0.232-1.715-0.7C119.563,227.397,119.335,226.817,119.335,226.118z
			 M120.408,226.138c0,0.455,0.123,0.815,0.367,1.08c0.248,0.27,0.578,0.402,0.986,0.402c0.411,0,0.741-0.131,0.988-0.398
			c0.246-0.264,0.367-0.618,0.367-1.061c0-0.443-0.121-0.799-0.367-1.062c-0.249-0.27-0.579-0.402-0.988-0.402
			c-0.401,0-0.729,0.133-0.978,0.402C120.533,225.367,120.408,225.713,120.408,226.138z"/>
		<path fill="#1d204b" d="M124.711,223.872h1.059v0.421c0.366-0.364,0.781-0.548,1.242-0.548c0.53,0,0.945,0.167,1.24,0.501
			c0.257,0.284,0.385,0.746,0.385,1.39v2.794h-1.059v-2.542c0-0.448-0.061-0.759-0.188-0.93c-0.121-0.175-0.342-0.262-0.663-0.262
			c-0.352,0-0.599,0.115-0.744,0.345c-0.145,0.228-0.214,0.625-0.214,1.191v2.197h-1.059V223.872z"/>
		<path fill="#1d204b" d="M132.728,223.872h1.058v4.558h-1.058v-0.478c-0.435,0.406-0.901,0.607-1.401,0.607
			c-0.63,0-1.15-0.227-1.563-0.682c-0.407-0.467-0.611-1.045-0.611-1.74c0-0.685,0.204-1.254,0.611-1.709
			c0.41-0.455,0.922-0.684,1.537-0.684c0.529,0,1.006,0.219,1.428,0.655V223.872z M130.229,226.138c0,0.437,0.116,0.793,0.349,1.066
			c0.242,0.277,0.545,0.416,0.91,0.416c0.389,0,0.704-0.133,0.945-0.402c0.239-0.277,0.359-0.63,0.359-1.057
			c0-0.429-0.12-0.779-0.359-1.059c-0.241-0.271-0.554-0.406-0.938-0.406c-0.36,0-0.663,0.137-0.905,0.41
			C130.347,225.385,130.229,225.728,130.229,226.138z"/>
		<path fill="#1d204b" d="M135.566,222.204v6.226h-1.053v-6.226H135.566z"/>
		<path fill="#1d204b" d="M136.105,227.786c0-0.174,0.065-0.326,0.191-0.453c0.128-0.129,0.281-0.192,0.459-0.192
			c0.179,0,0.332,0.063,0.459,0.192c0.129,0.127,0.191,0.279,0.191,0.457c0,0.181-0.062,0.335-0.191,0.463
			c-0.126,0.126-0.277,0.188-0.459,0.188c-0.184,0-0.339-0.062-0.463-0.188C136.168,228.129,136.105,227.973,136.105,227.786z"/>
		<path fill="#1d204b" d="M137.781,222.216c0-0.184,0.066-0.343,0.202-0.478c0.133-0.135,0.294-0.201,0.48-0.201
			c0.192,0,0.353,0.066,0.489,0.201c0.133,0.132,0.2,0.292,0.2,0.482c0,0.189-0.067,0.354-0.2,0.487
			c-0.134,0.134-0.294,0.2-0.482,0.2c-0.191,0-0.354-0.066-0.487-0.2C137.848,222.574,137.781,222.41,137.781,222.216z
			 M138.994,223.872v4.558h-1.054v-4.558H138.994z"/>
		<path fill="#1d204b" d="M142.497,224.648l-0.87,0.464c-0.138-0.278-0.308-0.416-0.511-0.416c-0.098,0-0.18,0.031-0.248,0.095
			c-0.067,0.064-0.102,0.146-0.102,0.245c0,0.176,0.202,0.348,0.608,0.52c0.557,0.239,0.934,0.461,1.127,0.663
			c0.193,0.201,0.29,0.476,0.29,0.818c0,0.439-0.162,0.807-0.487,1.104c-0.314,0.281-0.695,0.419-1.14,0.419
			c-0.767,0-1.308-0.371-1.624-1.117l0.896-0.416c0.127,0.218,0.221,0.355,0.287,0.416c0.127,0.118,0.279,0.178,0.457,0.178
			c0.356,0,0.535-0.161,0.535-0.488c0-0.186-0.139-0.359-0.413-0.522c-0.106-0.054-0.211-0.104-0.316-0.155
			c-0.106-0.049-0.215-0.102-0.323-0.152c-0.307-0.15-0.521-0.3-0.646-0.45c-0.159-0.19-0.238-0.436-0.238-0.735
			c0-0.396,0.137-0.724,0.406-0.982c0.277-0.258,0.616-0.389,1.012-0.389C141.781,223.745,142.213,224.047,142.497,224.648z"/>
		<path fill="#1d204b" d="M103.576,222.282l0.732,0.28c-0.257,0.61-0.435,1.175-0.539,1.692c-0.051,0.261-0.089,0.536-0.117,0.825
			c-0.024,0.29-0.037,0.604-0.037,0.947c0,0.344,0.013,0.659,0.037,0.948c0.028,0.291,0.066,0.564,0.117,0.826
			c0.1,0.514,0.279,1.079,0.539,1.688l-0.732,0.281c-0.512-1.069-0.77-2.317-0.77-3.744
			C102.807,224.6,103.064,223.352,103.576,222.282z"/>
		<path fill="#1d204b" d="M144.001,229.797l-0.729-0.28c0.258-0.611,0.436-1.173,0.537-1.688c0.104-0.515,0.158-1.107,0.158-1.776
			c0-0.664-0.054-1.256-0.158-1.772c-0.103-0.517-0.281-1.081-0.537-1.692l0.729-0.28c0.511,1.068,0.766,2.317,0.766,3.745
			C144.767,227.479,144.512,228.729,144.001,229.797z"/>
	</g>	

	<!-- months of the year -->
	<text transform="matrix(1 0 0 1 22.3418 22.9629)"><tspan x="0" y="0" font-family="'HelveticaNeue'" font-size="7.8366">jan</tspan><tspan x="-0.87" y="12.5" font-family="'HelveticaNeue'" font-size="7.8366">feb</tspan><tspan x="-3.198" y="25" font-family="'HelveticaNeue'" font-size="7.8366">mar</tspan><tspan x="-1.16" y="37.5" font-family="'HelveticaNeue'" font-size="7.8366">apr</tspan><tspan x="-4.506" y="50" font-family="'HelveticaNeue'" font-size="7.8366">may</tspan><tspan x="-0.149" y="62.5" font-family="'HelveticaNeue'" font-size="7.8366">jun</tspan><tspan x="2.468" y="75" font-family="'HelveticaNeue'" font-size="7.8366">jul</tspan><tspan x="-2.759" y="87.5" font-family="'HelveticaNeue'" font-size="7.8366">aug</tspan><tspan x="-4.937" y="100" font-family="'HelveticaNeue'" font-size="7.8366">sept</tspan><tspan x="-0.87" y="112.5" font-family="'HelveticaNeue'" font-size="7.8366">oct</tspan><tspan x="-2.469" y="125" font-family="'HelveticaNeue'" font-size="7.8366">nov</tspan><tspan x="-2.759" y="137.5" font-family="'HelveticaNeue'" font-size="7.8366">dec</tspan></text>



<!-- days of the month! -->
<text transform="matrix(1 0 0 1 42.9378 21.981)"><tspan x="1.845" y="0" fill="#A7A9AC" font-family="'HelveticaNeue'" font-size="6.857">t</tspan>
<tspan x="1.909" y="12.5" fill="#A7A9AC" font-family="'HelveticaNeue'" font-size="6.857">f</tspan>
<tspan x="1.909" y="25" fill="#A7A9AC" font-family="'HelveticaNeue'" font-size="6.857">f</tspan>
<tspan x="0" y="37.5" fill="#A7A9AC" font-family="'HelveticaNeue'" font-size="6.857">m</tspan>
<tspan x="0.325" y="50" fill="#A7A9AC" font-family="'HelveticaNeue'" font-size="6.857">w</tspan>
<tspan x="1.21" y="62.5" fill="#808285" font-family="'HelveticaNeue'" font-size="6.857">s</tspan>
<tspan x="0" y="75" fill="#A7A9AC" font-family="'HelveticaNeue'" font-size="6.857">m</tspan>
<tspan x="1.845" y="87.5" fill="#A7A9AC" font-family="'HelveticaNeue'" font-size="6.857">t</tspan>
<tspan x="1.21" y="100" fill="#808285" font-family="'HelveticaNeue'" font-size="6.857">s</tspan>
<tspan x="1.845" y="112.5" fill="#A7A9AC" font-family="'HelveticaNeue'" font-size="6.857">t</tspan>
<tspan x="1.909" y="125" fill="#A7A9AC" font-family="'HelveticaNeue'" font-size="6.857">f</tspan>
<tspan x="1.21" y="137.5" fill="#808285" font-family="'HelveticaNeue'" font-size="6.857">s</tspan>
</text>
<text transform="matrix(1 0 0 1 58.243 21.981)"><tspan x="0.325" y="0" fill="#A7A9AC" font-family="'HelveticaNeue'" font-size="6.857">w</tspan>
<tspan x="1.21" y="12.5" fill="#808285" font-family="'HelveticaNeue'" font-size="6.857">s</tspan>
<tspan x="1.21" y="25" fill="#808285" font-family="'HelveticaNeue'" font-size="6.857">s</tspan>
<tspan x="1.845" y="37.5" fill="#A7A9AC" font-family="'HelveticaNeue'" font-size="6.857">t</tspan>
<tspan x="1.845" y="50" fill="#A7A9AC" font-family="'HelveticaNeue'" font-size="6.857">t</tspan>
<tspan x="1.21" y="62.5" fill="#808285" font-family="'HelveticaNeue'" font-size="6.857">s</tspan>
<tspan x="1.845" y="75" fill="#A7A9AC" font-family="'HelveticaNeue'" font-size="6.857">t</tspan>
<tspan x="1.909" y="87.5" fill="#A7A9AC" font-family="'HelveticaNeue'" font-size="6.857">f</tspan>
<tspan x="0" y="100" fill="#A7A9AC" font-family="'HelveticaNeue'" font-size="6.857">m</tspan>
<tspan x="0.325" y="112.5" fill="#A7A9AC" font-family="'HelveticaNeue'" font-size="6.857">w</tspan>
<tspan x="1.21" y="125" fill="#808285" font-family="'HelveticaNeue'" font-size="6.857">s</tspan>
<tspan x="0" y="137.5" fill="#A7A9AC" font-family="'HelveticaNeue'" font-size="6.857">m</tspan>
</text>
<text transform="matrix(1 0 0 1 74.304 21.981)"><tspan x="1.845" y="0" fill="#A7A9AC" font-family="'HelveticaNeue'" font-size="6.857">t</tspan>
<tspan x="1.21" y="12.5" fill="#808285" font-family="'HelveticaNeue'" font-size="6.857">s</tspan>
<tspan x="1.21" y="25" fill="#808285" font-family="'HelveticaNeue'" font-size="6.857">s</tspan>
<tspan x="0.325" y="37.5" fill="#A7A9AC" font-family="'HelveticaNeue'" font-size="6.857">w</tspan>
<tspan x="1.909" y="50" fill="#A7A9AC" font-family="'HelveticaNeue'" font-size="6.857">f</tspan>
<tspan x="0" y="62.5" fill="#A7A9AC" font-family="'HelveticaNeue'" font-size="6.857">m</tspan>
<tspan x="0.325" y="75" fill="#A7A9AC" font-family="'HelveticaNeue'" font-size="6.857">w</tspan>
<tspan x="1.21" y="87.5" fill="#808285" font-family="'HelveticaNeue'" font-size="6.857">s</tspan>
<tspan x="1.845" y="100" fill="#A7A9AC" font-family="'HelveticaNeue'" font-size="6.857">t</tspan>
<tspan x="1.845" y="112.5" fill="#A7A9AC" font-family="'HelveticaNeue'" font-size="6.857">t</tspan>
<tspan x="1.21" y="125" fill="#808285" font-family="'HelveticaNeue'" font-size="6.857">s</tspan>
<tspan x="1.845" y="137.5" fill="#A7A9AC" font-family="'HelveticaNeue'" font-size="6.857">t</tspan>
</text>
<text transform="matrix(1 0 0 1 89.7557 21.981)"><tspan x="1.909" y="0" fill="#A7A9AC" font-family="'HelveticaNeue'" font-size="6.857">f</tspan>
<tspan x="0" y="12.5" fill="#A7A9AC" font-family="'HelveticaNeue'" font-size="6.857">m</tspan>
<tspan x="0" y="25" fill="#A7A9AC" font-family="'HelveticaNeue'" font-size="6.857">m</tspan>
<tspan x="1.845" y="37.5" fill="#A7A9AC" font-family="'HelveticaNeue'" font-size="6.857">t</tspan>
<tspan x="1.21" y="50" fill="#808285" font-family="'HelveticaNeue'" font-size="6.857">s</tspan>
<tspan x="1.845" y="62.5" fill="#A7A9AC" font-family="'HelveticaNeue'" font-size="6.857">t</tspan>
<tspan x="1.845" y="75" fill="#A7A9AC" font-family="'HelveticaNeue'" font-size="6.857">t</tspan>
<tspan x="1.21" y="87.5" fill="#808285" font-family="'HelveticaNeue'" font-size="6.857">s</tspan>
<tspan x="0.325" y="100" fill="#A7A9AC" font-family="'HelveticaNeue'" font-size="6.857">w</tspan>
<tspan x="1.909" y="112.5" fill="#A7A9AC" font-family="'HelveticaNeue'" font-size="6.857">f</tspan>
<tspan x="0" y="125" fill="#A7A9AC" font-family="'HelveticaNeue'" font-size="6.857">m</tspan>
<tspan x="0.325" y="137.5" fill="#A7A9AC" font-family="'HelveticaNeue'" font-size="6.857">w</tspan>
</text>
<text transform="matrix(1 0 0 1 104.7032 21.981)"><tspan x="1.21" y="0" fill="#808285" font-family="'HelveticaNeue'" font-size="6.857">s</tspan>
<tspan x="1.845" y="12.5" fill="#A7A9AC" font-family="'HelveticaNeue'" font-size="6.857">t</tspan>
<tspan x="1.845" y="25" fill="#A7A9AC" font-family="'HelveticaNeue'" font-size="6.857">t</tspan>
<tspan x="1.909" y="37.5" fill="#A7A9AC" font-family="'HelveticaNeue'" font-size="6.857">f</tspan>
<tspan x="1.21" y="50" fill="#808285" font-family="'HelveticaNeue'" font-size="6.857">s</tspan>
<tspan x="0.325" y="62.5" fill="#A7A9AC" font-family="'HelveticaNeue'" font-size="6.857">w</tspan>
<tspan x="1.909" y="75" fill="#A7A9AC" font-family="'HelveticaNeue'" font-size="6.857">f</tspan>
<tspan x="0" y="87.5" fill="#A7A9AC" font-family="'HelveticaNeue'" font-size="6.857">m</tspan>
<tspan x="1.845" y="100" fill="#A7A9AC" font-family="'HelveticaNeue'" font-size="6.857">t</tspan>
<tspan x="1.21" y="112.5" fill="#808285" font-family="'HelveticaNeue'" font-size="6.857">s</tspan>
<tspan x="1.845" y="125" fill="#A7A9AC" font-family="'HelveticaNeue'" font-size="6.857">t</tspan>
<tspan x="1.845" y="137.5" fill="#A7A9AC" font-family="'HelveticaNeue'" font-size="6.857">t</tspan>
</text>
<text transform="matrix(1 0 0 1 120.0498 21.981)"><tspan x="1.21" y="0" fill="#808285" font-family="'HelveticaNeue'" font-size="6.857">s</tspan>
<tspan x="0.325" y="12.5" fill="#A7A9AC" font-family="'HelveticaNeue'" font-size="6.857">w</tspan>
<tspan x="0.325" y="25" fill="#A7A9AC" font-family="'HelveticaNeue'" font-size="6.857">w</tspan>
<tspan x="1.21" y="37.5" fill="#808285" font-family="'HelveticaNeue'" font-size="6.857">s</tspan>
<tspan x="0" y="50" fill="#A7A9AC" font-family="'HelveticaNeue'" font-size="6.857">m</tspan>
<tspan x="1.845" y="62.5" fill="#A7A9AC" font-family="'HelveticaNeue'" font-size="6.857">t</tspan>
<tspan x="1.21" y="75" fill="#808285" font-family="'HelveticaNeue'" font-size="6.857">s</tspan>
<tspan x="1.845" y="87.5" fill="#A7A9AC" font-family="'HelveticaNeue'" font-size="6.857">t</tspan>
<tspan x="1.909" y="100" fill="#A7A9AC" font-family="'HelveticaNeue'" font-size="6.857">f</tspan>
<tspan x="1.21" y="112.5" fill="#808285" font-family="'HelveticaNeue'" font-size="6.857">s</tspan>
<tspan x="0.325" y="125" fill="#A7A9AC" font-family="'HelveticaNeue'" font-size="6.857">w</tspan>
<tspan x="1.909" y="137.5" fill="#A7A9AC" font-family="'HelveticaNeue'" font-size="6.857">f</tspan>
</text>
<text transform="matrix(1 0 0 1 134.9756 21.981)"><tspan x="0" y="0" fill="#A7A9AC" font-family="'HelveticaNeue'" font-size="6.857">m</tspan>
<tspan x="1.845" y="12.5" fill="#A7A9AC" font-family="'HelveticaNeue'" font-size="6.857">t</tspan>
<tspan x="1.845" y="25" fill="#A7A9AC" font-family="'HelveticaNeue'" font-size="6.857">t</tspan>
<tspan x="1.21" y="37.5" fill="#808285" font-family="'HelveticaNeue'" font-size="6.857">s</tspan>
<tspan x="1.845" y="50" fill="#A7A9AC" font-family="'HelveticaNeue'" font-size="6.857">t</tspan>
<tspan x="1.909" y="62.5" fill="#A7A9AC" font-family="'HelveticaNeue'" font-size="6.857">f</tspan>
<tspan x="1.21" y="75" fill="#808285" font-family="'HelveticaNeue'" font-size="6.857">s</tspan>
<tspan x="0.325" y="87.5" fill="#A7A9AC" font-family="'HelveticaNeue'" font-size="6.857">w</tspan>
<tspan x="1.21" y="100" fill="#808285" font-family="'HelveticaNeue'" font-size="6.857">s</tspan>
<tspan x="0" y="112.5" fill="#A7A9AC" font-family="'HelveticaNeue'" font-size="6.857">m</tspan>
<tspan x="1.845" y="125" fill="#A7A9AC" font-family="'HelveticaNeue'" font-size="6.857">t</tspan>
<tspan x="1.21" y="137.5" fill="#808285" font-family="'HelveticaNeue'" font-size="6.857">s</tspan>
</text>
	




<text transform="matrix(1 0 0 1 89.9492 179.0635)">
	<tspan x="0" y="0" font-family="'HelveticaNeue'" font-size="8.8162">4</tspan><tspan x="-2.45" y="12.5" font-family="'HelveticaNeue'" font-size="8.8162">11</tspan><tspan x="-2.45" y="25" font-family="'HelveticaNeue'" font-size="8.8162">18</tspan><tspan x="-2.45" y="37.5" font-family="'HelveticaNeue'" font-size="8.8162">25</tspan></text>

<text transform="matrix(1 0 0 1 74.6035 179.0635)"><tspan x="0" y="0" font-family="'HelveticaNeue'" font-size="8.8162">3</tspan><tspan x="-2.451" y="12.5" font-family="'HelveticaNeue'" font-size="8.8162">10</tspan><tspan x="-2.451" y="25" font-family="'HelveticaNeue'" font-size="8.8162">17</tspan><tspan x="-2.451" y="37.5" font-family="'HelveticaNeue'" font-size="8.8162">24</tspan><tspan x="-2.451" y="50" font-family="'HelveticaNeue'" font-size="8.8162">31</tspan></text>

<text transform="matrix(1 0 0 1 59.2568 179.0635)"><tspan x="0" y="0" font-family="'HelveticaNeue'" font-size="8.8162">2</tspan><tspan x="0" y="12.5" font-family="'HelveticaNeue'" font-size="8.8162">9</tspan><tspan x="-2.451" y="25" font-family="'HelveticaNeue'" font-size="8.8162">16</tspan><tspan x="-2.451" y="37.5" font-family="'HelveticaNeue'" font-size="8.8162">23</tspan><tspan x="-2.451" y="50" font-family="'HelveticaNeue'" font-size="8.8162" fill="white">30</tspan></text>

<text transform="matrix(1 0 0 1 43.9106 179.0635)"><tspan x="0" y="0" font-family="'HelveticaNeue'" font-size="8.8162">1</tspan><tspan x="0" y="12.5" font-family="'HelveticaNeue'" font-size="8.8162">8</tspan><tspan x="-2.451" y="25" font-family="'HelveticaNeue'" font-size="8.8162">15</tspan><tspan x="-2.451" y="37.5" font-family="'HelveticaNeue'" font-size="8.8162">22</tspan><tspan x="-2.451" y="50" font-family="'HelveticaNeue'" font-size="8.8162">29</tspan></text>

<text transform="matrix(1 0 0 1 120.3164 179.0635)"><tspan x="0" y="0" font-family="'HelveticaNeue'" font-size="8.8162">6</tspan><tspan x="-2.451" y="12.5" font-family="'HelveticaNeue'" font-size="8.8162">13</tspan><tspan x="-2.451" y="25" font-family="'HelveticaNeue'" font-size="8.8162">20</tspan><tspan x="-2.451" y="37.5" font-family="'HelveticaNeue'" font-size="8.8162">27</tspan></text>

<text transform="matrix(1 0 0 1 104.9717 179.0635)"><tspan x="0" y="0" font-family="'HelveticaNeue'" font-size="8.8162">5</tspan><tspan x="-2.451" y="12.5" font-family="'HelveticaNeue'" font-size="8.8162">12</tspan><tspan x="-2.451" y="25" font-family="'HelveticaNeue'" font-size="8.8162">19</tspan><tspan x="-2.451" y="37.5" font-family="'HelveticaNeue'" font-size="8.8162">26</tspan></text>

<text transform="matrix(1 0 0 1 135.3379 179.0635)"><tspan x="0" y="0" font-family="'HelveticaNeue'" font-size="8.8162">7</tspan><tspan x="-2.45" y="12.5" font-family="'HelveticaNeue'" font-size="8.8162">14</tspan><tspan x="-2.45" y="25" font-family="'HelveticaNeue'" font-size="8.8162">21</tspan><tspan x="-2.45" y="37.5" font-family="'HelveticaNeue'" font-size="8.8162">28</tspan></text>

</svg>